<svg aria-hidden="true" style="position: absolute; width: 0; height: 0; overflow: hidden;" version="1.1" xmlns="http://www.w3.org/2000/svg" xmlns:xlink="http://www.w3.org/1999/xlink">
<defs>
<symbol id="icon-play3" viewBox="0 0 32 32">
<path d="M6 4l20 12-20 12z"></path>
</symbol>
<symbol id="icon-arrow-right2" viewBox="0 0 32 32">
<path d="M19.414 27.414l10-10c0.781-0.781 0.781-2.047 0-2.828l-10-10c-0.781-0.781-2.047-0.781-2.828 0s-0.781 2.047 0 2.828l6.586 6.586h-19.172c-1.105 0-2 0.895-2 2s0.895 2 2 2h19.172l-6.586 6.586c-0.39 0.39-0.586 0.902-0.586 1.414s0.195 1.024 0.586 1.414c0.781 0.781 2.047 0.781 2.828 0z"></path>
</symbol>
<symbol id="icon-flattr" viewBox="0 0 32 32">
<path d="M11.486 0c-7.605 0-11.486 4.38-11.486 12.558v0 17.157l7.45-7.457v-8.716c0-3.388 0.898-5.544 3.91-6.028v0c1.052-0.206 3.242-0.134 4.635-0.134v0 5.175c0 0.047 0.006 0.131 0.019 0.175v0c0.058 0.21 0.248 0.363 0.472 0.363v0c0.127 0 0.246-0.066 0.368-0.187v0l12.91-12.905-18.277-0.002zM24.55 9.742v8.715c0 3.388-0.898 5.544-3.91 6.028v0c-1.052 0.206-3.242 0.134-4.635 0.134v0-5.175c0-0.047-0.006-0.131-0.019-0.174v0c-0.058-0.21-0.248-0.363-0.472-0.363v0c-0.127-0-0.246 0.066-0.368 0.186v0l-12.91 12.905 18.277 0.002c7.605 0 11.486-4.38 11.486-12.558v0-17.157l-7.45 7.457z"></path>
</symbol>
</defs>
</svg>
